<svg xmlns="http://www.w3.org/2000/svg" viewBox="0 0 390 844" width="390" height="844">
  <defs>
    <linearGradient id="skyGrad" x1="0%" y1="0%" x2="0%" y2="100%">
      <stop offset="0%" style="stop-color:#1a0533"/>
      <stop offset="40%" style="stop-color:#2D1B69"/>
      <stop offset="100%" style="stop-color:#4C1D95"/>
    </linearGradient>
    <radialGradient id="moonGlow" cx="75%" cy="15%" r="20%">
      <stop offset="0%" style="stop-color:#EDE9FE;stop-opacity:0.3"/>
      <stop offset="100%" style="stop-color:#EDE9FE;stop-opacity:0"/>
    </radialGradient>
  </defs>
  <!-- Sky -->
  <rect width="390" height="844" fill="url(#skyGrad)"/>
  <!-- Moon glow -->
  <ellipse cx="292" cy="126" rx="80" ry="80" fill="url(#moonGlow)"/>
  <!-- Moon -->
  <circle cx="292" cy="126" r="36" fill="#EDE9FE"/>
  <circle cx="302" cy="116" r="30" fill="#2D1B69"/>
  <!-- Stars -->
  <circle cx="40" cy="60" r="1.5" fill="white" opacity="0.8"/>
  <circle cx="85" cy="30" r="1" fill="white" opacity="0.6"/>
  <circle cx="130" cy="80" r="2" fill="white" opacity="0.9"/>
  <circle cx="200" cy="45" r="1" fill="white" opacity="0.7"/>
  <circle cx="160" cy="100" r="1.5" fill="white" opacity="0.5"/>
  <circle cx="340" cy="55" r="1" fill="white" opacity="0.8"/>
  <circle cx="370" cy="90" r="1.5" fill="white" opacity="0.6"/>
  <circle cx="55" cy="150" r="1" fill="white" opacity="0.7"/>
  <circle cx="230" cy="160" r="1" fill="white" opacity="0.5"/>
  <!-- City skyline (distant) -->
  <rect x="0" y="500" width="390" height="344" fill="#0D0621"/>
  <rect x="20" y="440" width="30" height="100" rx="2" fill="#1A0A3D"/>
  <rect x="60" y="400" width="40" height="140" rx="2" fill="#1A0A3D"/>
  <rect x="110" y="460" width="25" height="80" rx="2" fill="#1A0A3D"/>
  <rect x="145" y="380" width="35" height="160" rx="2" fill="#180934"/>
  <rect x="190" y="420" width="45" height="120" rx="2" fill="#1A0A3D"/>
  <rect x="245" y="450" width="28" height="90" rx="2" fill="#180934"/>
  <rect x="283" y="390" width="38" height="150" rx="2" fill="#1A0A3D"/>
  <rect x="330" y="430" width="32" height="110" rx="2" fill="#180934"/>
  <rect x="370" y="470" width="20" height="70" rx="2" fill="#1A0A3D"/>
  <!-- Building windows -->
  <rect x="65" y="410" width="6" height="6" rx="1" fill="#A78BFA" opacity="0.6"/>
  <rect x="75" y="410" width="6" height="6" rx="1" fill="#A78BFA" opacity="0.4"/>
  <rect x="65" y="422" width="6" height="6" rx="1" fill="#EC4899" opacity="0.5"/>
  <rect x="150" y="395" width="6" height="6" rx="1" fill="#A78BFA" opacity="0.7"/>
  <rect x="162" y="395" width="6" height="6" rx="1" fill="#A78BFA" opacity="0.3"/>
  <rect x="196" y="430" width="6" height="6" rx="1" fill="#EC4899" opacity="0.6"/>
  <rect x="208" y="430" width="6" height="6" rx="1" fill="#A78BFA" opacity="0.5"/>
  <rect x="288" y="400" width="6" height="6" rx="1" fill="#A78BFA" opacity="0.7"/>
  <rect x="300" y="410" width="6" height="6" rx="1" fill="#EC4899" opacity="0.4"/>
  <!-- Ground glow -->
  <ellipse cx="195" cy="844" rx="300" ry="100" fill="#A78BFA" opacity="0.05"/>
</svg>
