<svg xmlns="http://www.w3.org/2000/svg" viewBox="0 0 200 320" width="200" height="320">
  <!-- Body -->
  <rect x="60" y="140" width="80" height="120" rx="10" fill="#F5C5D5"/>
  <!-- Legs -->
  <rect x="70" y="240" width="25" height="50" rx="8" fill="#E8C5D4"/>
  <rect x="105" y="240" width="25" height="50" rx="8" fill="#E8C5D4"/>
  <!-- Arms -->
  <rect x="25" y="145" width="35" height="18" rx="9" fill="#E8C5D4"/>
  <rect x="140" y="145" width="35" height="18" rx="9" fill="#E8C5D4"/>
  <!-- Neck -->
  <rect x="88" y="118" width="24" height="28" rx="6" fill="#E8C5D4"/>
  <!-- Head -->
  <ellipse cx="100" cy="100" rx="48" ry="50" fill="#F2D4C2"/>
  <!-- Hair -->
  <ellipse cx="100" cy="60" rx="50" ry="30" fill="#D4A843"/>
  <ellipse cx="52" cy="98" rx="14" ry="32" fill="#D4A843"/>
  <ellipse cx="148" cy="98" rx="14" ry="32" fill="#D4A843"/>
  <rect x="52" y="80" width="96" height="30" rx="0" fill="#D4A843"/>
  <!-- Eyes -->
  <ellipse cx="84" cy="100" rx="8" ry="9" fill="white"/>
  <ellipse cx="116" cy="100" rx="8" ry="9" fill="white"/>
  <ellipse cx="86" cy="101" rx="5" ry="6" fill="#5C3D2E"/>
  <ellipse cx="118" cy="101" rx="5" ry="6" fill="#5C3D2E"/>
  <circle cx="87" cy="99" r="2" fill="white"/>
  <circle cx="119" cy="99" r="2" fill="white"/>
  <!-- Blush -->
  <ellipse cx="74" cy="112" rx="9" ry="5" fill="#FFB3C6" opacity="0.6"/>
  <ellipse cx="126" cy="112" rx="9" ry="5" fill="#FFB3C6" opacity="0.6"/>
  <!-- Mouth -->
  <path d="M 92 118 Q 100 126 108 118" stroke="#D4737A" stroke-width="2" fill="none" stroke-linecap="round"/>
  <!-- Name tag -->
  <rect x="65" y="158" width="70" height="22" rx="6" fill="white" opacity="0.7"/>
  <text x="100" y="174" text-anchor="middle" font-family="sans-serif" font-size="13" font-weight="bold" fill="#D4A843">KYA</text>
</svg>
